<svg width="40" height="40" viewBox="0 0 40 40" fill="none" xmlns="http://www.w3.org/2000/svg">
<mask id="mask0_1010_152305" style="mask-type:alpha" maskUnits="userSpaceOnUse" x="4" y="0" width="32" height="32">
<path d="M7.52827 2.9095C4.45957 5.59477 3.9055 12.7662 4.01205 16.0162C3.9055 19.799 4.49153 27.2049 8.00775 29.4426C11.524 31.6803 17.2245 31.9467 20.1547 32C23.3512 32 27.0273 32 31.8221 29.6024C35.1785 27.2049 35.8178 22.5696 35.9777 16.0162C36.1375 9.46284 35.4982 4.9874 32.1418 2.43C29.4721 0.395847 22.9783 -0.0741379 20.1547 0.032417C17.2245 -0.127421 10.597 0.224223 7.52827 2.9095Z" fill="#C4C4C4"/>
</mask>
<g mask="url(#mask0_1010_152305)">
<rect x="-6.87891" y="-10.8828" width="53.76" height="53.76" fill="black"/>
<g clip-path="url(#clip0_1010_152305)">
<g clip-path="url(#clip1_1010_152305)">
<path d="M28.0646 14.5443V19.1614C28.0646 19.3616 28.0252 19.5598 27.9486 19.7448C27.872 19.9298 27.7597 20.0978 27.6181 20.2394C27.4766 20.381 27.3085 20.4933 27.1236 20.5699C26.9386 20.6465 26.7404 20.686 26.5401 20.686V20.686C26.4621 20.686 26.3872 20.6549 26.332 20.5997C26.2768 20.5445 26.2458 20.4696 26.2458 20.3915V16.9457C26.2458 16.7743 26.1777 16.61 26.0565 16.4888C25.9353 16.3676 25.7709 16.2995 25.5996 16.2995H25.0722C24.9873 16.2995 24.9033 16.3162 24.8249 16.3487C24.7465 16.3811 24.6753 16.4287 24.6153 16.4887C24.5552 16.5487 24.5076 16.62 24.4752 16.6984C24.4427 16.7768 24.426 16.8608 24.426 16.9456V20.2375C24.426 20.4089 24.3579 20.5732 24.2367 20.6944C24.1155 20.8156 23.9512 20.8837 23.7798 20.8837H23.2532C23.0818 20.8837 22.9175 20.8156 22.7963 20.6944C22.6751 20.5732 22.6071 20.4089 22.6071 20.2375V16.9456C22.6071 16.7743 22.539 16.6099 22.4178 16.4888C22.2966 16.3676 22.1323 16.2995 21.9609 16.2995H21.4335C21.3486 16.2995 21.2646 16.3162 21.1862 16.3487C21.1078 16.3812 21.0365 16.4288 20.9765 16.4888C20.9165 16.5488 20.8689 16.6201 20.8364 16.6985C20.804 16.7769 20.7873 16.861 20.7873 16.9458V20.2377C20.7873 20.3225 20.7706 20.4066 20.7381 20.485C20.7056 20.5634 20.658 20.6346 20.598 20.6946C20.538 20.7546 20.4668 20.8022 20.3884 20.8347C20.31 20.8672 20.226 20.8839 20.1411 20.8839H19.6145C19.4432 20.8839 19.2788 20.8158 19.1576 20.6946C19.0365 20.5734 18.9684 20.4091 18.9684 20.2377V16.9458C18.9684 16.861 18.9517 16.7769 18.9192 16.6985C18.8868 16.6201 18.8392 16.5488 18.7792 16.4888C18.7192 16.4288 18.6479 16.3812 18.5695 16.3487C18.4911 16.3162 18.4071 16.2995 18.3222 16.2995H17.7956C17.7108 16.2995 17.6268 16.3162 17.5483 16.3487C17.4699 16.3811 17.3987 16.4287 17.3387 16.4887C17.2787 16.5487 17.2311 16.62 17.1986 16.6984C17.1661 16.7768 17.1494 16.8608 17.1494 16.9456V20.2375C17.1494 20.4089 17.0813 20.5733 16.9601 20.6944C16.8389 20.8156 16.6746 20.8837 16.5032 20.8837H15.9759C15.8046 20.8837 15.6403 20.8156 15.5191 20.6945C15.398 20.5734 15.3299 20.4092 15.3298 20.2379V16.946C15.3298 16.8611 15.3131 16.7771 15.2807 16.6986C15.2482 16.6202 15.2006 16.5489 15.1406 16.4889C15.0806 16.4288 15.0093 16.3812 14.9309 16.3487C14.8525 16.3162 14.7684 16.2995 14.6835 16.2995H14.157C14.0721 16.2995 13.9881 16.3162 13.9096 16.3486C13.8312 16.3811 13.7599 16.4287 13.6999 16.4887C13.6398 16.5488 13.5922 16.62 13.5597 16.6985C13.5273 16.7769 13.5106 16.861 13.5106 16.9458V20.1952C13.5106 20.2597 13.4979 20.3235 13.4732 20.3831C13.4485 20.4426 13.4124 20.4968 13.3668 20.5423C13.3212 20.5879 13.2671 20.6241 13.2075 20.6488C13.148 20.6734 13.0842 20.6861 13.0197 20.6861V20.6861C12.6674 20.6861 12.3296 20.5462 12.0805 20.2971C11.8313 20.048 11.6914 19.7101 11.6914 19.3578V14.5443C11.6914 14.0933 11.7803 13.6466 11.9529 13.2298C12.1255 12.8131 12.3785 12.4344 12.6975 12.1155C13.0165 11.7965 13.3951 11.5435 13.8119 11.3708C14.2286 11.1982 14.6753 11.1094 15.1264 11.1094H24.6294C25.0805 11.1093 25.5272 11.1981 25.944 11.3708C26.3608 11.5434 26.7395 11.7964 27.0585 12.1153C27.3775 12.4343 27.6305 12.813 27.8032 13.2298C27.9758 13.6465 28.0646 14.0932 28.0646 14.5443Z" fill="white"/>
</g>
</g>
</g>
<defs>
<clipPath id="clip0_1010_152305">
<rect width="16.6167" height="16.6167" fill="white" transform="translate(11.6914 7.6875)"/>
</clipPath>
<clipPath id="clip1_1010_152305">
<rect width="16.6167" height="16.6167" fill="white" transform="translate(11.6914 7.6875)"/>
</clipPath>
</defs>
</svg>
