<svg width="20" height="20" viewBox="0 0 20 20" fill="none" xmlns="http://www.w3.org/2000/svg">
<mask id="mask0_1010_152313" style="mask-type:alpha" maskUnits="userSpaceOnUse" x="0" y="0" width="20" height="20">
<path d="M2.18422 1.80116C0.284503 3.46351 -0.0585012 7.90305 0.00746114 9.91503C-0.0585022 12.2568 0.30429 16.8415 2.48105 18.2268C4.6578 19.6121 8.18679 19.777 10.0008 19.81C11.9796 19.81 14.2553 19.81 17.2236 18.3258C19.3015 16.8415 19.6972 13.972 19.7962 9.91503C19.8951 5.85809 19.4993 3.08751 17.4215 1.50432C15.7688 0.245054 11.7488 -0.045896 10.0008 0.0200681C8.18679 -0.0788814 4.08394 0.138808 2.18422 1.80116Z" fill="#C4C4C4"/>
</mask>
<g mask="url(#mask0_1010_152313)">
<rect x="-6.73438" y="-6.73438" width="33.2808" height="33.2808" fill="black"/>
<g clip-path="url(#clip0_1010_152313)">
<g clip-path="url(#clip1_1010_152313)">
<path d="M14.8978 9.00927V11.8675C14.8978 11.9914 14.8734 12.1142 14.8259 12.2287C14.7785 12.3432 14.709 12.4472 14.6214 12.5349C14.5337 12.6225 14.4297 12.692 14.3152 12.7395C14.2007 12.7869 14.078 12.8113 13.954 12.8113C13.9057 12.8113 13.8593 12.7921 13.8251 12.7579C13.791 12.7237 13.7718 12.6774 13.7718 12.6291V10.4959C13.7718 10.3898 13.7296 10.288 13.6546 10.213C13.5796 10.138 13.4778 10.0958 13.3717 10.0958H13.0453C12.9927 10.0958 12.9407 10.1062 12.8922 10.1263C12.8436 10.1464 12.7995 10.1758 12.7624 10.213C12.7252 10.2501 12.6958 10.2942 12.6757 10.3427C12.6556 10.3913 12.6452 10.4433 12.6452 10.4958V12.5337C12.6452 12.6398 12.6031 12.7415 12.528 12.8166C12.453 12.8916 12.3513 12.9337 12.2452 12.9337H11.9192C11.8131 12.9337 11.7114 12.8916 11.6364 12.8166C11.5613 12.7415 11.5192 12.6398 11.5192 12.5337V10.4958C11.5192 10.3897 11.477 10.288 11.402 10.213C11.327 10.138 11.2253 10.0958 11.1192 10.0958H10.7927C10.7401 10.0958 10.6881 10.1062 10.6396 10.1263C10.591 10.1464 10.5469 10.1759 10.5098 10.213C10.4726 10.2502 10.4432 10.2943 10.4231 10.3428C10.403 10.3914 10.3926 10.4434 10.3926 10.496V12.5338C10.3926 12.5863 10.3823 12.6384 10.3622 12.6869C10.3421 12.7354 10.3126 12.7795 10.2755 12.8167C10.2383 12.8538 10.1942 12.8833 10.1457 12.9034C10.0972 12.9235 10.0452 12.9339 9.99262 12.9339H9.66663C9.56053 12.9339 9.45879 12.8917 9.38378 12.8167C9.30877 12.7416 9.26663 12.6399 9.26663 12.5338V10.496C9.26664 10.4434 9.2563 10.3914 9.2362 10.3428C9.2161 10.2943 9.18664 10.2502 9.14949 10.213C9.11234 10.1759 9.06824 10.1464 9.0197 10.1263C8.97116 10.1062 8.91913 10.0958 8.86659 10.0958H8.54063C8.48809 10.0958 8.43607 10.1062 8.38753 10.1263C8.33899 10.1464 8.29489 10.1758 8.25774 10.213C8.22059 10.2501 8.19112 10.2942 8.17102 10.3427C8.15091 10.3913 8.14056 10.4433 8.14056 10.4958V12.5337C8.14056 12.6398 8.09841 12.7415 8.02339 12.8166C7.94836 12.8916 7.8466 12.9337 7.7405 12.9337H7.41409C7.30804 12.9337 7.20634 12.8916 7.13133 12.8166C7.05633 12.7417 7.01415 12.64 7.01408 12.5339V10.4961C7.01411 10.4435 7.00379 10.3915 6.9837 10.3429C6.9636 10.2943 6.93414 10.2502 6.89699 10.213C6.85983 10.1759 6.81572 10.1464 6.76717 10.1263C6.71862 10.1062 6.66657 10.0958 6.61402 10.0958H6.28808C6.23553 10.0958 6.18349 10.1061 6.13493 10.1262C6.08637 10.1463 6.04225 10.1758 6.00509 10.213C5.96793 10.2501 5.93845 10.2942 5.91834 10.3428C5.89823 10.3914 5.88789 10.4434 5.8879 10.496V12.5075C5.8879 12.5474 5.88004 12.5869 5.86477 12.6238C5.8495 12.6607 5.82711 12.6942 5.79889 12.7224C5.77067 12.7506 5.73717 12.773 5.7003 12.7883C5.66343 12.8036 5.62392 12.8114 5.58401 12.8114C5.36592 12.8114 5.15677 12.7248 5.00256 12.5706C4.84835 12.4164 4.76172 12.2072 4.76172 11.9891V9.00927C4.76172 8.73002 4.81672 8.4535 4.92359 8.19551C5.03045 7.93752 5.18708 7.7031 5.38454 7.50564C5.582 7.30818 5.81642 7.15154 6.07442 7.04468C6.33241 6.93781 6.60893 6.88281 6.88818 6.88281H12.7711C13.0504 6.88279 13.3269 6.93777 13.585 7.04462C13.843 7.15147 14.0774 7.3081 14.2749 7.50557C14.4724 7.70303 14.629 7.93746 14.7359 8.19546C14.8428 8.45347 14.8978 8.73 14.8978 9.00927Z" fill="white"/>
</g>
</g>
</g>
<defs>
<clipPath id="clip0_1010_152313">
<rect width="10.2868" height="10.2868" fill="white" transform="translate(4.76172 4.76562)"/>
</clipPath>
<clipPath id="clip1_1010_152313">
<rect width="10.2868" height="10.2868" fill="white" transform="translate(4.76172 4.76562)"/>
</clipPath>
</defs>
</svg>
