<svg width="470" height="470" viewBox="0 0 470 470" fill="none" xmlns="http://www.w3.org/2000/svg">
<mask id="mask0_1010_151336" style="mask-type:alpha" maskUnits="userSpaceOnUse" x="0" y="0" width="470" height="470">
<path d="M51.8215 42.7332C6.74996 82.1732 -1.38796 187.503 0.177018 235.238C-1.38799 290.798 7.2194 399.571 58.8638 432.438C110.508 465.305 194.235 469.217 237.272 470C284.221 470 338.213 470 408.638 434.786C457.935 399.571 467.324 331.49 469.672 235.238C472.019 138.985 462.63 73.2524 413.333 35.6906C374.122 5.81401 278.744 -1.0889 237.272 0.476125C194.235 -1.87149 96.893 3.29327 51.8215 42.7332Z" fill="#C4C4C4"/>
</mask>
<g mask="url(#mask0_1010_151336)">
<rect x="-159.797" y="-159.797" width="789.6" height="789.6" fill="white"/>
<g clip-path="url(#clip0_1010_151336)">
<g clip-path="url(#clip1_1010_151336)">
<path d="M353.455 213.678V281.49C353.455 284.431 352.876 287.343 351.75 290.059C350.625 292.776 348.976 295.245 346.897 297.324C344.817 299.403 342.349 301.053 339.632 302.178C336.916 303.304 334.004 303.883 331.063 303.883C329.917 303.883 328.817 303.427 328.006 302.616C327.195 301.805 326.74 300.705 326.74 299.558V248.948C326.74 246.43 325.74 244.016 323.96 242.236C322.18 240.457 319.766 239.457 317.249 239.457H309.503C308.257 239.457 307.022 239.702 305.871 240.179C304.719 240.656 303.673 241.355 302.792 242.236C301.91 243.117 301.211 244.163 300.734 245.315C300.257 246.466 300.011 247.7 300.011 248.947V297.296C300.011 299.813 299.012 302.227 297.232 304.007C295.452 305.787 293.038 306.787 290.521 306.787H282.787C280.27 306.787 277.856 305.787 276.076 304.007C274.296 302.227 273.296 299.813 273.296 297.296V248.947C273.296 246.43 272.296 244.016 270.516 242.236C268.737 240.456 266.323 239.457 263.806 239.457H256.06C254.813 239.457 253.579 239.702 252.427 240.179C251.276 240.656 250.229 241.356 249.348 242.237C248.466 243.119 247.767 244.165 247.29 245.317C246.813 246.469 246.568 247.703 246.568 248.95V297.299C246.568 298.545 246.323 299.779 245.846 300.931C245.369 302.082 244.67 303.128 243.789 304.01C242.908 304.891 241.861 305.59 240.71 306.067C239.558 306.545 238.324 306.79 237.078 306.79H229.344C226.826 306.79 224.413 305.79 222.633 304.01C220.853 302.23 219.853 299.816 219.853 297.299V248.95C219.854 247.703 219.608 246.469 219.131 245.317C218.655 244.165 217.956 243.119 217.074 242.237C216.193 241.356 215.147 240.656 213.995 240.179C212.843 239.702 211.609 239.457 210.362 239.457H202.629C201.382 239.456 200.148 239.702 198.996 240.179C197.845 240.655 196.799 241.354 195.917 242.236C195.036 243.117 194.337 244.163 193.86 245.315C193.383 246.466 193.137 247.7 193.137 248.947V297.296C193.137 299.813 192.137 302.227 190.357 304.007C188.577 305.787 186.163 306.787 183.645 306.787H175.901C173.385 306.787 170.972 305.787 169.193 304.009C167.413 302.23 166.413 299.817 166.411 297.301V248.952C166.412 247.706 166.167 246.471 165.69 245.319C165.213 244.167 164.514 243.12 163.633 242.238C162.751 241.356 161.705 240.656 160.553 240.179C159.401 239.702 158.166 239.456 156.919 239.457H149.186C147.939 239.456 146.705 239.701 145.553 240.178C144.401 240.655 143.354 241.354 142.472 242.236C141.59 243.118 140.891 244.164 140.414 245.316C139.937 246.468 139.691 247.703 139.692 248.95V296.675C139.692 297.622 139.505 298.559 139.143 299.434C138.781 300.309 138.25 301.104 137.58 301.773C136.911 302.443 136.116 302.974 135.241 303.336C134.366 303.699 133.429 303.885 132.482 303.885C127.308 303.885 122.345 301.83 118.687 298.171C115.028 294.512 112.973 289.55 112.973 284.376V213.678C112.973 207.052 114.278 200.492 116.813 194.371C119.348 188.25 123.065 182.688 127.749 178.003C132.434 173.319 137.996 169.602 144.117 167.067C150.238 164.532 156.798 163.227 163.424 163.227H302.999C309.625 163.226 316.186 164.53 322.307 167.066C328.429 169.601 333.991 173.317 338.676 178.002C343.362 182.687 347.078 188.248 349.614 194.37C352.15 200.491 353.455 207.052 353.455 213.678Z" fill="#1584A0"/>
</g>
</g>
</g>
<defs>
<clipPath id="clip0_1010_151336">
<rect width="244.058" height="244.058" fill="white" transform="translate(112.973 112.977)"/>
</clipPath>
<clipPath id="clip1_1010_151336">
<rect width="244.058" height="244.058" fill="white" transform="translate(112.973 112.977)"/>
</clipPath>
</defs>
</svg>
