<svg width="201" height="60" viewBox="0 0 201 60" fill="none" xmlns="http://www.w3.org/2000/svg">
<g id="Store Name=Google Play, Badge Color Type=Black, Language=EN" clip-path="url(#clip0_1010_150114)">
<path id="Vector" fill-rule="evenodd" clip-rule="evenodd" d="M192.84 59.7593H7.66013C3.5761 59.7593 0.25 56.4195 0.25 52.3519V7.90741C0.25 3.82502 3.5761 0.5 7.66013 0.5H192.84C196.92 0.5 200.25 3.82502 200.25 7.90741V52.3519C200.25 56.4195 196.92 59.7593 192.84 59.7593Z" fill="black"/>
<path id="Vector_2" fill-rule="evenodd" clip-rule="evenodd" d="M192.84 1.68592C196.265 1.68592 199.069 4.48264 199.069 7.90741V52.3519C199.069 55.7766 196.284 58.5733 192.84 58.5733H7.66013C4.23469 58.5733 1.43106 55.7766 1.43106 52.3519V7.90741C1.43106 4.48264 4.2163 1.68592 7.66013 1.68592H192.84ZM192.84 0.5H7.66013C3.5761 0.5 0.25 3.8398 0.25 7.90741V52.3519C0.25 56.4342 3.5761 59.7593 7.66013 59.7593H192.84C196.92 59.7593 200.25 56.4342 200.25 52.3519V7.90741C200.25 3.8398 196.92 0.5 192.84 0.5Z" fill="white"/>
<path id="Vector_3" d="M105.611 20.1032C104.275 20.1032 103.149 19.634 102.259 18.7104C101.376 17.8126 100.883 16.575 100.905 15.3115C100.905 13.963 101.361 12.8214 102.259 11.9163C103.146 10.9926 104.272 10.5234 105.607 10.5234C106.928 10.5234 108.054 10.9926 108.959 11.9163C109.857 12.851 110.313 13.9925 110.313 15.3115C110.298 16.6636 109.842 17.8052 108.959 18.7067C108.072 19.6377 106.946 20.1032 105.611 20.1032ZM65.8708 20.1032C64.5647 20.1032 63.4315 19.6414 62.5043 18.7289C61.5845 17.82 61.1172 16.671 61.1172 15.3152C61.1172 13.9593 61.5845 12.8103 62.5043 11.9015C63.4131 10.9889 64.5463 10.5271 65.8708 10.5271C66.5184 10.5271 67.1475 10.6564 67.7509 10.9187C68.3433 11.1737 68.8253 11.5209 69.1822 11.9458L69.2705 12.0529L68.2734 13.0357L68.1704 12.9138C67.6075 12.2414 66.8532 11.9126 65.8561 11.9126C64.9657 11.9126 64.1894 12.2303 63.5492 12.8583C62.9053 13.4901 62.5779 14.3177 62.5779 15.3189C62.5779 16.3201 62.9053 17.1476 63.5492 17.7794C64.1894 18.4074 64.9657 18.7252 65.8561 18.7252C66.8054 18.7252 67.6038 18.4074 68.2256 17.7794C68.5935 17.4099 68.8216 16.8927 68.9026 16.2388H65.7053V14.857H70.2749L70.2933 14.9827C70.3264 15.2154 70.3596 15.4556 70.3596 15.6772C70.3596 16.9518 69.9769 17.9826 69.219 18.7436C68.358 19.6451 67.2322 20.1032 65.8708 20.1032ZM118.709 19.9074H117.3L112.984 12.9729L113.021 14.2216V19.9037H111.612V10.7229H113.22L113.264 10.7931L117.322 17.325L117.285 16.0799V10.7229H118.709V19.9074ZM95.0218 19.9074H93.5943V12.1047H91.1181V10.7229H97.4943V12.1047H95.0182V19.9074H95.0218ZM89.9555 19.9074H88.5316V10.7229H89.9555V19.9074ZM81.953 19.9074H80.5291V12.1047H78.053V10.7229H84.4292V12.1047H81.953V19.9074ZM77.1515 19.8926H71.6915V10.7229H77.1515V12.1047H73.119V14.6243H76.7578V15.9913H73.119V18.5109H77.1515V19.8926ZM103.304 17.7609C103.94 18.4 104.713 18.7215 105.611 18.7215C106.534 18.7215 107.289 18.4074 107.918 17.7609C108.543 17.1328 108.86 16.309 108.86 15.3152C108.86 14.3214 108.543 13.4938 107.921 12.8694C107.285 12.2303 106.509 11.9089 105.614 11.9089C104.691 11.9089 103.937 12.2229 103.311 12.8694C102.686 13.4975 102.369 14.3214 102.369 15.3152C102.369 16.309 102.682 17.1365 103.304 17.7609Z" fill="white"/>
<path id="Vector_4" fill-rule="evenodd" clip-rule="evenodd" d="M100.771 32.7317C97.2943 32.7317 94.4759 35.3806 94.4759 39.0345C94.4759 42.655 97.3127 45.3372 100.771 45.3372C104.248 45.3372 107.067 42.6698 107.067 39.0345C107.067 35.3806 104.248 32.7317 100.771 32.7317ZM100.771 42.8398C98.869 42.8398 97.2317 41.2585 97.2317 39.0197C97.2317 36.7476 98.8727 35.1996 100.771 35.1996C102.673 35.1996 104.311 36.7476 104.311 39.0197C104.314 41.2733 102.673 42.8398 100.771 42.8398ZM87.0364 32.7317C83.5594 32.7317 80.741 35.3806 80.741 39.0345C80.741 42.655 83.5778 45.3372 87.0364 45.3372C90.5133 45.3372 93.3317 42.6698 93.3317 39.0345C93.3317 35.3806 90.5096 32.7317 87.0364 32.7317ZM87.0364 42.8398C85.1341 42.8398 83.4969 41.2585 83.4969 39.0197C83.4969 36.7476 85.1378 35.1996 87.0364 35.1996C88.9386 35.1996 90.5759 36.7476 90.5759 39.0197C90.5759 41.2733 88.9386 42.8398 87.0364 42.8398ZM70.6928 34.6565V37.3239H77.0691C76.8741 38.8202 76.3811 39.9248 75.6268 40.6822C74.6922 41.6206 73.25 42.6403 70.7075 42.6403C66.7891 42.6403 63.7242 39.463 63.7242 35.5284C63.7242 31.5938 66.7891 28.4166 70.7075 28.4166C72.8232 28.4166 74.3648 29.2552 75.5091 30.3266L77.3929 28.435C75.8034 26.9055 73.6878 25.7344 70.7223 25.7344C65.3468 25.7344 60.8359 30.1308 60.8359 35.5136C60.8359 40.9112 65.3431 45.2929 70.7223 45.2929C73.6252 45.2929 75.8034 44.3397 77.5253 42.5442C79.2804 40.7819 79.8359 38.2956 79.8359 36.2895C79.8359 35.6651 79.7881 35.1035 79.6888 34.627H70.6891C70.6928 34.6233 70.6928 34.6565 70.6928 34.6565ZM137.542 36.7328C137.016 35.3178 135.427 32.7169 132.167 32.7169C128.936 32.7169 126.251 35.2698 126.251 39.0197C126.251 42.559 128.907 45.3224 132.48 45.3224C135.349 45.3224 137.02 43.5602 137.708 42.5257L135.578 41.0923C134.871 42.1452 133.889 42.8361 132.494 42.8361C131.085 42.8361 130.099 42.1932 129.444 40.926L137.837 37.4348C137.837 37.4384 137.542 36.7328 137.542 36.7328ZM128.984 38.8386C128.918 36.404 130.868 35.1663 132.263 35.1663C133.363 35.1663 134.279 35.7094 134.592 36.5001L128.984 38.8386ZM122.166 44.9456H124.922V26.4289H122.166V44.9456ZM117.641 34.1319H117.542C116.92 33.3893 115.739 32.7169 114.23 32.7169C111.099 32.7169 108.214 35.4841 108.214 39.0381C108.214 42.5774 111.084 45.3114 114.23 45.3114C115.72 45.3114 116.92 44.6353 117.542 43.8779H117.641V44.783C117.641 47.1881 116.361 48.4849 114.296 48.4849C112.608 48.4849 111.559 47.2657 111.132 46.2461L108.737 47.251C109.425 48.9135 111.261 50.9713 114.293 50.9713C117.523 50.9713 120.261 49.0612 120.261 44.4025V33.0938H117.656V34.1319C117.659 34.1319 117.641 34.1319 117.641 34.1319ZM114.477 42.8398C112.574 42.8398 110.985 41.2437 110.985 39.0381C110.985 36.8141 112.574 35.2033 114.477 35.2033C116.361 35.2033 117.821 36.8326 117.821 39.0381C117.84 41.2437 116.364 42.8398 114.477 42.8398ZM150.446 26.4289H143.856V44.9456H146.612V37.9335H150.449C153.5 37.9335 156.498 35.7131 156.498 32.1886C156.498 28.6641 153.511 26.4289 150.446 26.4289ZM150.527 35.3474H146.608V28.9929H150.527C152.591 28.9929 153.757 30.7034 153.757 32.1701C153.757 33.6221 152.576 35.3474 150.527 35.3474ZM167.543 32.6984C165.542 32.6984 163.478 33.5888 162.624 35.5284L165.067 36.5481C165.593 35.5284 166.557 35.1811 167.577 35.1811C169.004 35.1811 170.446 36.0382 170.48 37.5678V37.7636C169.987 37.4828 168.905 37.0542 167.61 37.0542C164.972 37.0542 162.297 38.5025 162.297 41.2179C162.297 43.7043 164.46 45.3003 166.87 45.3003C168.721 45.3003 169.74 44.4616 170.377 43.49H170.476V44.9234H173.132V37.8301C173.132 34.5272 170.689 32.6984 167.543 32.6984ZM167.198 42.8398C166.296 42.8398 165.034 42.3964 165.034 41.2585C165.034 39.8251 166.609 39.282 167.952 39.282C169.166 39.282 169.74 39.5443 170.461 39.9063C170.262 41.5689 168.864 42.825 167.198 42.8398ZM182.824 33.0938L179.659 41.1255H179.56L176.282 33.0938H173.316L178.236 44.3212L175.432 50.5612H178.302L185.87 33.0938H182.824ZM158.018 44.9456H160.774V26.4289H158.018V44.9456Z" fill="white"/>
<path id="Vector_5" fill-rule="evenodd" clip-rule="evenodd" d="M15.646 11.6623C15.2192 12.1241 14.9727 12.8297 14.9727 13.7533V46.5122C14.9727 47.4358 15.2192 48.1414 15.6607 48.5848L15.7747 48.6845L34.0536 30.3304V29.9203L15.76 11.5625L15.646 11.6623Z" fill="url(#paint0_linear_1010_150114)"/>
<path id="Vector_6" fill-rule="evenodd" clip-rule="evenodd" d="M40.1318 36.4689L34.0352 30.3472V29.9186L40.1318 23.7969L40.2643 23.8782L47.4758 27.9938C49.5399 29.1612 49.5399 31.0898 47.4758 32.272L40.2643 36.3876L40.1318 36.4689Z" fill="url(#paint1_linear_1010_150114)"/>
<path id="Vector_7" fill-rule="evenodd" clip-rule="evenodd" d="M40.2665 36.3875L34.0374 30.1328L15.6445 48.6015C16.3178 49.3256 17.4474 49.4068 18.7094 48.7012L40.2665 36.3875Z" fill="url(#paint2_linear_1010_150114)"/>
<path id="Vector_8" fill-rule="evenodd" clip-rule="evenodd" d="M40.2665 23.8769L18.7094 11.5817C17.4474 10.8576 16.3142 10.9574 15.6445 11.6815L34.0374 30.1316L40.2665 23.8769Z" fill="url(#paint3_linear_1010_150114)"/>
<path id="Vector_9" opacity="0.2" fill-rule="evenodd" clip-rule="evenodd" d="M40.1351 36.25L18.725 48.4639C17.5293 49.1547 16.4623 49.1067 15.7742 48.4786L15.6602 48.5932L15.7742 48.6929C16.4623 49.3173 17.5293 49.369 18.725 48.6781L40.2822 36.383L40.1351 36.25Z" fill="black"/>
<path id="Vector_10" opacity="0.12" fill-rule="evenodd" clip-rule="evenodd" d="M47.4795 32.0576L40.1172 36.2545L40.2496 36.3875L47.4611 32.2719C48.495 31.6808 49.0027 30.905 49.0027 30.1328C48.9402 30.8422 48.414 31.5145 47.4795 32.0576Z" fill="black"/>
<path id="Vector_11" opacity="0.25" fill-rule="evenodd" clip-rule="evenodd" d="M18.7108 11.7946L47.4794 28.2055C48.4139 28.7338 48.9401 29.4246 49.021 30.1303C49.021 29.3581 48.5133 28.5823 47.4794 27.9912L18.7108 11.5804C16.6467 10.3944 14.9727 11.3846 14.9727 13.7527V13.967C14.9727 11.5951 16.6467 10.6235 18.7108 11.7946Z" fill="white"/>
</g>
<defs>
<linearGradient id="paint0_linear_1010_150114" x1="32.414" y1="13.3999" x2="3.11857" y2="21.1737" gradientUnits="userSpaceOnUse">
<stop stop-color="#00A0FF"/>
<stop offset="0.00657" stop-color="#00A1FF"/>
<stop offset="0.2601" stop-color="#00BEFF"/>
<stop offset="0.5122" stop-color="#00D2FF"/>
<stop offset="0.7604" stop-color="#00DFFF"/>
<stop offset="1" stop-color="#00E3FF"/>
</linearGradient>
<linearGradient id="paint1_linear_1010_150114" x1="50.1675" y1="30.1329" x2="14.4672" y2="30.1329" gradientUnits="userSpaceOnUse">
<stop stop-color="#FFE000"/>
<stop offset="0.4087" stop-color="#FFBD00"/>
<stop offset="0.7754" stop-color="#FFA500"/>
<stop offset="1" stop-color="#FF9C00"/>
</linearGradient>
<linearGradient id="paint2_linear_1010_150114" x1="36.8794" y1="33.5363" x2="13.2308" y2="73.1755" gradientUnits="userSpaceOnUse">
<stop stop-color="#FF3A44"/>
<stop offset="1" stop-color="#C31162"/>
</linearGradient>
<linearGradient id="paint3_linear_1010_150114" x1="11.013" y1="0.766886" x2="21.5636" y2="18.4704" gradientUnits="userSpaceOnUse">
<stop stop-color="#32A071"/>
<stop offset="0.0685" stop-color="#2DA771"/>
<stop offset="0.4762" stop-color="#15CF74"/>
<stop offset="0.8009" stop-color="#06E775"/>
<stop offset="1" stop-color="#00F076"/>
</linearGradient>
<clipPath id="clip0_1010_150114">
<rect width="200" height="59.2593" fill="white" transform="translate(0.25 0.5)"/>
</clipPath>
</defs>
</svg>
