<svg width="246" height="246" viewBox="0 0 246 246" fill="none" xmlns="http://www.w3.org/2000/svg">
<g id="logo_symbol" clip-path="url(#clip0_1599_78939)">
<g id="logo_symbol_2">
<path id="&#237;&#140;&#168;&#236;&#138;&#164; 3424" d="M241.455 101.678V169.49C241.455 172.431 240.876 175.343 239.75 178.059C238.625 180.776 236.976 183.245 234.897 185.324C232.817 187.403 230.349 189.053 227.632 190.178C224.916 191.304 222.004 191.883 219.063 191.883V191.883C217.917 191.883 216.817 191.427 216.006 190.616C215.195 189.805 214.74 188.705 214.74 187.558V136.948C214.74 134.43 213.74 132.016 211.96 130.236C210.18 128.457 207.766 127.457 205.249 127.457H197.503C196.257 127.457 195.022 127.702 193.871 128.179C192.719 128.656 191.673 129.355 190.792 130.236C189.91 131.117 189.211 132.163 188.734 133.315C188.257 134.466 188.011 135.7 188.011 136.947V185.296C188.011 187.813 187.012 190.227 185.232 192.007C183.452 193.787 181.038 194.787 178.521 194.787H170.787C168.27 194.787 165.856 193.787 164.076 192.007C162.296 190.227 161.296 187.813 161.296 185.296V136.947C161.296 134.43 160.296 132.016 158.516 130.236C156.737 128.456 154.323 127.457 151.806 127.457H144.06C142.813 127.457 141.579 127.702 140.427 128.179C139.276 128.656 138.229 129.356 137.348 130.237C136.466 131.119 135.767 132.165 135.29 133.317C134.813 134.469 134.568 135.703 134.568 136.95V185.299C134.568 186.545 134.323 187.779 133.846 188.931C133.369 190.082 132.67 191.128 131.789 192.01C130.908 192.891 129.861 193.59 128.71 194.067C127.558 194.545 126.324 194.79 125.078 194.79H117.344C114.826 194.79 112.413 193.79 110.633 192.01C108.853 190.23 107.853 187.816 107.853 185.299V136.95C107.854 135.703 107.608 134.469 107.131 133.317C106.655 132.165 105.956 131.119 105.074 130.237C104.193 129.356 103.147 128.656 101.995 128.179C100.843 127.702 99.6089 127.457 98.3624 127.457H90.6287C89.3823 127.456 88.1481 127.702 86.9965 128.179C85.8449 128.655 84.7986 129.354 83.9172 130.236C83.0358 131.117 82.3366 132.163 81.8596 133.315C81.3826 134.466 81.137 135.7 81.137 136.947V185.296C81.137 187.813 80.137 190.227 78.357 192.007C76.577 193.787 74.1627 194.787 71.6454 194.787H63.9011C61.385 194.787 58.9721 193.787 57.1926 192.009C55.4131 190.23 54.4125 187.817 54.4109 185.301V136.952C54.4116 135.706 54.1666 134.471 53.6899 133.319C53.2133 132.167 52.5142 131.12 51.6327 130.238C50.7513 129.356 49.7047 128.656 48.5527 128.179C47.4008 127.702 46.1661 127.456 44.9192 127.457H37.1862C35.9394 127.456 34.7047 127.701 33.5526 128.178C32.4006 128.655 31.3538 129.354 30.4721 130.236C29.5904 131.118 28.891 132.164 28.4139 133.316C27.9369 134.468 27.6915 135.703 27.6918 136.95V184.675C27.6918 185.622 27.5053 186.559 27.1429 187.434C26.7806 188.309 26.2495 189.104 25.58 189.773C24.9105 190.443 24.1157 190.974 23.241 191.336C22.3662 191.698 21.4286 191.885 20.4818 191.885V191.885C15.3077 191.885 10.3454 189.83 6.68675 186.171C3.02807 182.512 0.972656 177.55 0.972656 172.376V101.678C0.972656 95.0523 2.27761 88.4918 4.81301 82.3708C7.34841 76.2498 11.0646 70.6882 15.7494 66.0033C20.4342 61.3185 25.9959 57.6023 32.1169 55.0669C38.2379 52.5315 44.7984 51.2266 51.4237 51.2266H190.999C197.625 51.2259 204.186 52.5304 210.307 55.0655C216.429 57.6006 221.991 61.3167 226.676 66.0016C231.362 70.6865 235.078 76.2484 237.614 82.3697C240.15 88.4911 241.455 95.0519 241.455 101.678Z" fill="#5D54B7"/>
</g>
</g>
<defs>
<clipPath id="clip0_1599_78939">
<rect width="244.058" height="244.058" fill="white" transform="translate(0.972656 0.976562)"/>
</clipPath>
</defs>
</svg>
