<svg width="201" height="61" viewBox="0 0 201 61" fill="none" xmlns="http://www.w3.org/2000/svg">
<g id="Group">
<g id="Group_2">
<g id="Group_3">
<path id="Vector" d="M184.823 0.500195H16.6857C16.0729 0.500195 15.4673 0.500195 14.8561 0.503195C14.3444 0.506195 13.8368 0.51491 13.3202 0.522245C12.1979 0.534098 11.0783 0.622711 9.97098 0.787313C8.86526 0.955498 7.79417 1.27258 6.79395 1.72782C5.79496 2.18692 4.88214 2.78347 4.08863 3.49583C3.29095 4.20619 2.62602 5.02726 2.11942 5.92749C1.61141 6.82592 1.25916 7.78867 1.07483 8.7825C0.88874 9.77506 0.788605 10.7791 0.775321 11.7855C0.759811 12.2454 0.758173 12.7069 0.75 13.1668V47.8386C0.758173 48.3043 0.759811 48.7555 0.775321 49.2214C0.788609 50.2278 0.888744 51.2318 1.07483 52.2243C1.25865 53.2187 1.61092 54.182 2.11942 55.0808C2.62579 55.9781 3.29081 56.7958 4.08863 57.5022C4.87913 58.2178 5.79254 58.8147 6.79395 59.2703C7.79417 59.7268 8.86514 60.0457 9.97098 60.2165C11.0784 60.3798 12.198 60.4685 13.3202 60.4817C13.8368 60.4919 14.3444 60.4978 14.8561 60.4978C15.4673 60.5008 16.0729 60.5008 16.6857 60.5008H184.823C185.424 60.5008 186.034 60.5008 186.635 60.4978C187.144 60.4978 187.667 60.4919 188.176 60.4817C189.296 60.4692 190.413 60.3805 191.518 60.2165C192.628 60.0445 193.703 59.7257 194.708 59.2703C195.708 58.8145 196.621 58.2175 197.411 57.5022C198.206 56.7931 198.873 55.9759 199.386 55.0808C199.89 54.1813 200.239 53.2181 200.42 52.2243C200.607 51.2316 200.71 50.2279 200.73 49.2214C200.737 48.7555 200.737 48.3043 200.737 47.8386C200.75 47.2936 200.75 46.7516 200.75 46.1978V14.8045C200.75 14.2552 200.75 13.7103 200.737 13.1668C200.737 12.7069 200.737 12.2454 200.73 11.7855C200.71 10.7789 200.607 9.77514 200.42 8.78244C200.239 7.78919 199.89 6.82651 199.386 5.92743C198.354 4.12302 196.718 2.65425 194.708 1.72769C193.703 1.27355 192.628 0.95656 191.518 0.787178C190.414 0.62185 189.296 0.533207 188.176 0.522035C187.667 0.514715 187.144 0.505925 186.635 0.503C186.034 0.5 185.424 0.5 184.823 0.5V0.500195Z" fill="white"/>
<path id="Vector_2" d="M14.8661 59.1881C14.3568 59.1881 13.8599 59.1822 13.3547 59.172C12.3081 59.1598 11.2639 59.078 10.2307 58.9273C9.26732 58.7784 8.33407 58.5014 7.46172 58.1055C6.59737 57.7128 5.80901 57.1979 5.12685 56.5806C4.43481 55.9705 3.85866 55.2629 3.42123 54.4858C2.97897 53.7037 2.6729 52.8653 2.51369 52C2.34174 51.0701 2.24872 50.1299 2.23541 49.1875C2.22481 48.8711 2.21094 47.8178 2.21094 47.8178V13.1666C2.21094 13.1666 2.22571 12.1295 2.23549 11.8248C2.24824 10.8838 2.34072 9.94506 2.51215 9.01666C2.67166 8.14894 2.97796 7.30818 3.42046 6.52349C3.85628 5.74695 4.42924 5.03882 5.11711 4.42655C5.8042 3.80845 6.59508 3.29092 7.4609 2.89283C8.33125 2.49815 9.26274 2.2231 10.2242 2.07691C11.2607 1.92476 12.3085 1.84249 13.3588 1.83082L14.8669 1.8125H186.629L188.155 1.83155C189.195 1.84265 190.234 1.92418 191.261 2.07544C192.232 2.22347 193.173 2.50043 194.053 2.89722C195.788 3.6995 197.199 4.96878 198.09 6.52715C198.525 7.30642 198.827 8.14032 198.984 9.00055C199.158 9.93656 199.255 10.8827 199.275 11.8314C199.28 12.2562 199.28 12.7125 199.28 13.1666C199.293 13.7291 199.293 14.2645 199.293 14.8043V46.1976C199.293 46.7426 199.293 47.2743 199.28 47.8104C199.28 48.2982 199.28 48.7451 199.273 49.205C199.254 50.1368 199.158 51.066 198.987 51.9853C198.831 52.8569 198.527 53.7018 198.085 54.4903C197.644 55.2589 197.071 55.9604 196.387 56.5689C195.705 57.1896 194.915 57.7075 194.049 58.1026C193.171 58.5016 192.231 58.7797 191.261 58.9273C190.228 59.0788 189.183 59.1606 188.137 59.172C187.647 59.1822 187.135 59.1881 186.637 59.1881L184.825 59.1911L14.8661 59.1881Z" fill="black"/>
</g>
<g id="&#60;Group&#62;">
<g id="&#60;Group&#62;_2">
<g id="&#60;Group&#62;_3">
<path id="&#60;Path&#62;" d="M42.1455 30.9525C42.1635 29.7005 42.534 28.473 43.2226 27.384C43.9113 26.2951 44.8956 25.3802 46.0841 24.7244C45.3291 23.7566 44.3331 22.9602 43.1751 22.3984C42.0172 21.8366 40.7292 21.5248 39.4135 21.4878C36.6069 21.2234 33.886 22.9951 32.4559 22.9951C30.998 22.9951 28.796 21.5141 26.4248 21.5579C24.8911 21.6023 23.3963 22.0026 22.0862 22.7197C20.776 23.4368 19.6952 24.4463 18.949 25.6497C15.7166 30.6724 18.1277 38.054 21.224 42.114C22.7732 44.102 24.5838 46.3227 26.9528 46.244C29.2711 46.1577 30.1369 44.9172 32.9352 44.9172C35.7076 44.9172 36.5199 46.244 38.937 46.1939C41.4246 46.1577 42.9919 44.197 44.4867 42.1902C45.5998 40.7736 46.4563 39.208 47.0245 37.5514C45.5793 37.0028 44.346 36.0845 43.4784 34.911C42.6107 33.7376 42.1472 32.3609 42.1455 30.9525Z" fill="white"/>
<path id="&#60;Path&#62;_2" d="M37.5785 18.8141C38.9348 17.3528 39.603 15.4745 39.4412 13.5781C37.369 13.7735 35.4549 14.6623 34.0802 16.0676C33.4081 16.7541 32.8933 17.5527 32.5654 18.4179C32.2374 19.2831 32.1026 20.1978 32.1687 21.1097C33.2052 21.1193 34.2305 20.9177 35.1676 20.52C36.1047 20.1224 36.929 19.5391 37.5785 18.8141Z" fill="white"/>
</g>
</g>
<g id="Group_4">
<path id="Vector_3" d="M71.4509 41.2096H63.5398L61.6399 46.2444H58.2891L65.7824 27.6172H69.2638L76.7571 46.2444H73.3491L71.4509 41.2096ZM64.3591 38.8864H70.63L67.5387 30.7154H67.4521L64.3591 38.8864Z" fill="white"/>
<path id="Vector_4" d="M92.9413 39.4513C92.9413 43.6716 90.4245 46.383 86.6264 46.383C85.6643 46.4282 84.7075 46.2293 83.8655 45.8091C83.0235 45.3889 82.3303 44.7643 81.8654 44.007H81.7935V50.7336H78.6875V32.6602H81.694V34.919H81.7511C82.2374 34.1653 82.9423 33.544 83.7907 33.1213C84.6391 32.6985 85.5994 32.4901 86.5693 32.5181C90.4098 32.5181 92.9413 35.2428 92.9413 39.4513ZM89.7488 39.4513C89.7488 36.7018 88.1656 34.8941 85.75 34.8941C83.3768 34.8941 81.7805 36.7399 81.7805 39.4513C81.7805 42.1877 83.3768 44.0202 85.75 44.0202C88.1656 44.0202 89.7488 42.2258 89.7488 39.4513Z" fill="white"/>
<path id="Vector_5" d="M109.594 39.4513C109.594 43.6716 107.077 46.383 103.279 46.383C102.317 46.4282 101.36 46.2293 100.518 45.8091C99.6758 45.3888 98.9827 44.7643 98.5177 44.007H98.4459V50.7336H95.3398V32.6602H98.3463V34.919H98.4034C98.8897 34.1653 99.5946 33.544 100.443 33.1213C101.291 32.6985 102.252 32.4901 103.222 32.5181C107.062 32.5181 109.594 35.2428 109.594 39.4513ZM106.401 39.4513C106.401 36.7018 104.818 34.8941 102.402 34.8941C100.029 34.8941 98.4329 36.7398 98.4329 39.4513C98.4329 42.1877 100.029 44.0202 102.402 44.0202C104.818 44.0202 106.401 42.2257 106.401 39.4513H106.401Z" fill="white"/>
<path id="Vector_6" d="M120.601 41.0525C120.832 42.8996 122.831 44.1125 125.563 44.1125C128.181 44.1125 130.065 42.8996 130.065 41.234C130.065 39.7882 128.929 38.9225 126.239 38.3292L123.549 37.7477C119.738 36.9215 117.969 35.3219 117.969 32.7261C117.969 29.5122 121.089 27.3047 125.521 27.3047C129.906 27.3047 132.913 29.5122 133.014 32.7261H129.879C129.691 30.8672 127.979 29.7451 125.477 29.7451C122.975 29.7451 121.262 30.8804 121.262 32.5328C121.262 33.8497 122.356 34.6246 125.031 35.2178L127.318 35.7217C131.576 36.6255 133.345 38.1607 133.345 40.8853C133.345 44.3702 130.252 46.5529 125.333 46.5529C120.73 46.5529 117.623 44.4215 117.422 41.0523L120.601 41.0525Z" fill="white"/>
<path id="Vector_7" d="M140.051 29.4453V32.6592H142.929V34.8668H140.051V42.3536C140.051 43.5167 140.628 44.0587 141.892 44.0587C142.234 44.0534 142.575 44.0319 142.914 43.9942V46.1886C142.345 46.284 141.767 46.3272 141.189 46.3175C138.125 46.3175 136.931 45.2848 136.931 42.651V34.8668H134.73V32.6592H136.931V29.4453H140.051Z" fill="white"/>
<path id="Vector_8" d="M144.594 39.4503C144.594 35.1773 147.398 32.4922 151.77 32.4922C156.158 32.4922 158.949 35.1772 158.949 39.4503C158.949 43.735 156.172 46.4083 151.77 46.4083C147.37 46.4083 144.594 43.735 144.594 39.4503ZM155.784 39.4503C155.784 36.5191 154.287 34.7891 151.77 34.7891C149.254 34.7891 147.759 36.5323 147.759 39.4503C147.759 42.3932 149.254 44.11 151.77 44.11C154.287 44.11 155.784 42.3932 155.784 39.4503H155.784Z" fill="white"/>
<path id="Vector_9" d="M161.508 32.6601H164.47V34.9716H164.542C164.743 34.2497 165.214 33.6117 165.877 33.1648C166.539 32.718 167.353 32.4896 168.182 32.518C168.54 32.5169 168.897 32.5518 169.246 32.622V35.2294C168.794 35.1055 168.323 35.0486 167.85 35.061C167.399 35.0446 166.949 35.116 166.532 35.2703C166.114 35.4246 165.739 35.6582 165.431 35.9551C165.124 36.2519 164.892 36.605 164.75 36.99C164.609 37.375 164.563 37.7828 164.614 38.1855V46.2408H161.508L161.508 32.6601Z" fill="white"/>
<path id="Vector_10" d="M183.568 42.2511C183.15 44.7164 180.475 46.4083 177.052 46.4083C172.65 46.4083 169.918 43.7613 169.918 39.5147C169.918 35.2549 172.665 32.4922 176.922 32.4922C181.108 32.4922 183.741 35.0733 183.741 39.191V40.1461H173.053V40.3145C173.004 40.8143 173.074 41.3178 173.258 41.7916C173.442 42.2654 173.736 42.6985 174.121 43.0624C174.506 43.4262 174.973 43.7123 175.491 43.9018C176.009 44.0913 176.565 44.1797 177.124 44.1612C177.858 44.223 178.595 44.0704 179.224 43.7262C179.854 43.3821 180.343 42.8647 180.619 42.2511L183.568 42.2511ZM173.068 38.1978H180.633C180.661 37.7484 180.585 37.2987 180.41 36.8769C180.235 36.4551 179.965 36.0702 179.617 35.7466C179.268 35.4229 178.849 35.1674 178.385 34.9961C177.921 34.8248 177.423 34.7413 176.922 34.751C176.416 34.7483 175.914 34.8355 175.446 35.0076C174.978 35.1797 174.553 35.4333 174.195 35.7538C173.836 36.0742 173.552 36.4552 173.359 36.8747C173.166 37.2942 173.067 37.7439 173.068 38.1978V38.1978Z" fill="white"/>
</g>
</g>
</g>
<g id="&#60;Group&#62;_4">
<g id="Group_5">
<path id="Vector_11" d="M63.9694 13.5961C64.6206 13.5542 65.274 13.6424 65.8826 13.8546C66.4911 14.0667 67.0396 14.3975 67.4885 14.8229C67.9374 15.2484 68.2755 15.7579 68.4784 16.3148C68.6813 16.8717 68.744 17.4621 68.6619 18.0434C68.6619 20.9028 66.94 22.5464 63.9694 22.5464H60.3672V13.5961H63.9694ZM61.9161 21.2807H63.7964C64.2617 21.3056 64.7273 21.2372 65.1594 21.0802C65.5916 20.9233 65.9792 20.6819 66.2943 20.3735C66.6093 20.0652 66.8438 19.6977 66.9806 19.2977C67.1174 18.8978 67.1531 18.4755 67.0852 18.0616C67.1482 17.6494 67.1089 17.2297 66.9699 16.8327C66.831 16.4357 66.596 16.0712 66.2817 15.7653C65.9673 15.4594 65.5815 15.2197 65.1519 15.0633C64.7222 14.907 64.2593 14.8379 63.7964 14.8609H61.9161V21.2807Z" fill="white"/>
<path id="Vector_12" d="M70.4113 19.1687C70.364 18.7248 70.4206 18.2769 70.5774 17.8538C70.7343 17.4307 70.9879 17.0417 71.3221 16.7117C71.6562 16.3817 72.0636 16.1181 72.5179 15.9377C72.9723 15.7573 73.4636 15.6641 73.9605 15.6641C74.4573 15.6641 74.9487 15.7573 75.403 15.9377C75.8574 16.1181 76.2647 16.3817 76.5989 16.7117C76.9331 17.0417 77.1867 17.4307 77.3435 17.8538C77.5004 18.2769 77.557 18.7248 77.5096 19.1687C77.5579 19.613 77.5019 20.0615 77.3455 20.4853C77.1891 20.9091 76.9356 21.2988 76.6014 21.6294C76.2671 21.96 75.8595 22.2242 75.4047 22.405C74.9498 22.5859 74.4579 22.6793 73.9605 22.6793C73.463 22.6793 72.9711 22.5859 72.5163 22.405C72.0615 22.2242 71.6539 21.96 71.3196 21.6294C70.9853 21.2988 70.7319 20.9091 70.5754 20.4853C70.419 20.0615 70.3631 19.613 70.4113 19.1687ZM75.9819 19.1687C75.9819 17.7045 75.2491 16.8483 73.9629 16.8483C72.6719 16.8483 71.9456 17.7045 71.9456 19.1687C71.9456 20.6445 72.6719 21.4941 73.9629 21.4941C75.2491 21.4941 75.9819 20.6386 75.9819 19.1687H75.9819Z" fill="white"/>
<path id="Vector_13" d="M86.9453 22.5513H85.4045L83.8491 17.5767H83.7316L82.1826 22.5513H80.6565L78.582 15.7969H80.0885L81.4367 20.9509H81.5477L83.095 15.7969H84.5199L86.0672 20.9509H86.1847L87.5263 15.7969H89.0116L86.9453 22.5513Z" fill="white"/>
<path id="Vector_14" d="M90.7578 15.7933H92.1876V16.8663H92.2986C92.4869 16.4809 92.8044 16.1578 93.207 15.9421C93.6096 15.7264 94.0771 15.6288 94.5445 15.6629C94.9107 15.6382 95.2783 15.6877 95.6203 15.8079C95.9623 15.928 96.2697 16.1157 96.5199 16.357C96.77 16.5982 96.9565 16.8869 97.0655 17.2017C97.1745 17.5164 97.2032 17.8491 97.1494 18.1751V22.5477H95.6641V18.5099C95.6641 17.4244 95.1386 16.8846 94.0401 16.8846C93.7915 16.8742 93.5433 16.9122 93.3126 16.9959C93.0818 17.0797 92.874 17.2072 92.7033 17.3698C92.5326 17.5324 92.4031 17.7261 92.3237 17.9378C92.2442 18.1495 92.2168 18.3742 92.2431 18.5963V22.5477H90.7578L90.7578 15.7933Z" fill="white"/>
<path id="Vector_15" d="M99.5156 13.1562H101.001V22.5475H99.5156V13.1562Z" fill="white"/>
<path id="Vector_16" d="M103.064 19.1688C103.016 18.7249 103.073 18.277 103.23 17.8539C103.387 17.4307 103.64 17.0417 103.975 16.7117C104.309 16.3818 104.716 16.1181 105.171 15.9377C105.625 15.7573 106.116 15.6641 106.613 15.6641C107.11 15.6641 107.601 15.7573 108.056 15.9377C108.51 16.1181 108.918 16.3818 109.252 16.7117C109.586 17.0417 109.84 17.4307 109.997 17.8539C110.153 18.277 110.21 18.7249 110.163 19.1688C110.211 19.6131 110.155 20.0616 109.998 20.4854C109.842 20.9092 109.588 21.2989 109.254 21.6295C108.92 21.9602 108.512 22.2244 108.057 22.4051C107.603 22.5859 107.111 22.6793 106.613 22.6793C106.116 22.6793 105.624 22.5859 105.169 22.4051C104.714 22.2244 104.306 21.9602 103.972 21.6295C103.638 21.2989 103.384 20.9092 103.228 20.4854C103.071 20.0616 103.015 19.6131 103.064 19.1688ZM108.634 19.1688C108.634 17.7047 107.901 16.8485 106.615 16.8485C105.324 16.8485 104.598 17.7047 104.598 19.1688C104.598 20.6447 105.324 21.4943 106.615 21.4943C107.901 21.4942 108.634 20.6388 108.634 19.1688H108.634Z" fill="white"/>
<path id="Vector_17" d="M111.727 20.6387C111.727 19.4229 112.735 18.7219 114.526 18.6223L116.564 18.5169V17.9339C116.564 17.2205 116.039 16.8176 115.024 16.8176C114.194 16.8176 113.62 17.0908 113.455 17.5684H112.017C112.169 16.4082 113.385 15.6641 115.092 15.6641C116.979 15.6641 118.043 16.5071 118.043 17.9339V22.5489H116.613V21.5997H116.496C116.257 21.9402 115.922 22.2177 115.525 22.4041C115.128 22.5904 114.683 22.6788 114.235 22.6602C113.919 22.6897 113.6 22.6594 113.298 22.5714C112.996 22.4833 112.718 22.3394 112.481 22.149C112.245 21.9585 112.056 21.7257 111.926 21.4656C111.796 21.2055 111.728 20.9238 111.727 20.6387ZM116.564 20.0615V19.4969L114.726 19.6023C113.69 19.6646 113.22 19.981 113.22 20.5764C113.22 21.1844 113.808 21.5381 114.616 21.5381C114.852 21.5596 115.091 21.5382 115.319 21.475C115.546 21.4119 115.757 21.3084 115.939 21.1706C116.121 21.0328 116.27 20.8637 116.377 20.6731C116.485 20.4826 116.548 20.2746 116.564 20.0615Z" fill="white"/>
<path id="Vector_18" d="M119.996 19.1673C119.996 17.033 121.219 15.681 123.12 15.681C123.59 15.6615 124.057 15.7626 124.466 15.9725C124.875 16.1823 125.208 16.4922 125.428 16.866H125.539V13.1562H127.024V22.5475H125.601V21.4803H125.483C125.247 21.8515 124.901 22.1576 124.485 22.3653C124.068 22.573 123.596 22.6745 123.12 22.6588C121.206 22.6588 119.996 21.3067 119.996 19.1673ZM121.53 19.1673C121.53 20.6 122.283 21.462 123.541 21.462C124.793 21.462 125.567 20.5875 125.567 19.1732C125.567 17.7654 124.785 16.8785 123.541 16.8785C122.291 16.8785 121.53 17.7464 121.53 19.1673H121.53Z" fill="white"/>
<path id="Vector_19" d="M133.169 19.1687C133.122 18.7248 133.178 18.2769 133.335 17.8538C133.492 17.4307 133.746 17.0417 134.08 16.7117C134.414 16.3817 134.821 16.1181 135.276 15.9377C135.73 15.7573 136.221 15.6641 136.718 15.6641C137.215 15.6641 137.706 15.7573 138.161 15.9377C138.615 16.1181 139.023 16.3817 139.357 16.7117C139.691 17.0417 139.945 17.4307 140.101 17.8538C140.258 18.2769 140.315 18.7248 140.267 19.1687C140.316 19.613 140.26 20.0615 140.103 20.4853C139.947 20.9091 139.693 21.2988 139.359 21.6294C139.025 21.96 138.617 22.2242 138.162 22.405C137.708 22.5859 137.216 22.6793 136.718 22.6793C136.221 22.6793 135.729 22.5859 135.274 22.405C134.819 22.2242 134.412 21.96 134.077 21.6294C133.743 21.2988 133.49 20.9091 133.333 20.4853C133.177 20.0615 133.121 19.613 133.169 19.1687ZM138.74 19.1687C138.74 17.7045 138.007 16.8483 136.721 16.8483C135.43 16.8483 134.703 17.7045 134.703 19.1687C134.703 20.6445 135.43 21.4941 136.721 21.4941C138.007 21.4941 138.74 20.6386 138.74 19.1687Z" fill="white"/>
<path id="Vector_20" d="M142.262 15.7933H143.692V16.8663H143.803C143.991 16.4809 144.308 16.1578 144.711 15.9421C145.114 15.7264 145.581 15.6288 146.048 15.6629C146.415 15.6382 146.782 15.6877 147.124 15.8079C147.466 15.928 147.774 16.1157 148.024 16.357C148.274 16.5982 148.46 16.8869 148.569 17.2017C148.678 17.5164 148.707 17.8491 148.653 18.1751V22.5477H147.168V18.5099C147.168 17.4244 146.642 16.8846 145.544 16.8846C145.295 16.8742 145.047 16.9122 144.816 16.9959C144.586 17.0797 144.378 17.2072 144.207 17.3698C144.037 17.5324 143.907 17.7261 143.828 17.9378C143.748 18.1495 143.721 18.3742 143.747 18.5963V22.5477H142.262V15.7933Z" fill="white"/>
<path id="Vector_21" d="M157.045 14.1094V15.8218H158.675V16.9446H157.045V20.4178C157.045 21.1253 157.37 21.4351 158.109 21.4351C158.298 21.4346 158.488 21.4243 158.675 21.4044V22.5147C158.409 22.5575 158.139 22.5803 157.868 22.5828C156.216 22.5828 155.558 22.0613 155.558 20.7591V16.9446H154.363V15.8217H155.558V14.1094H157.045Z" fill="white"/>
<path id="Vector_22" d="M160.703 13.1562H162.175V16.8785H162.293C162.49 16.4895 162.817 16.1646 163.227 15.9481C163.638 15.7315 164.113 15.6339 164.588 15.6685C164.952 15.6507 165.316 15.7053 165.654 15.8283C165.992 15.9514 166.296 16.1399 166.543 16.3804C166.791 16.6209 166.976 16.9075 167.086 17.2197C167.196 17.5319 167.228 17.8621 167.179 18.1866V22.5475H165.693V18.5154C165.693 17.4366 165.133 16.8902 164.083 16.8902C163.828 16.8714 163.571 16.9029 163.331 16.9824C163.091 17.062 162.873 17.1878 162.692 17.3509C162.512 17.514 162.373 17.7105 162.286 17.9267C162.199 18.1429 162.166 18.3736 162.188 18.6026V22.5474H160.703L160.703 13.1562Z" fill="white"/>
<path id="Vector_23" d="M175.84 20.7253C175.638 21.3426 175.201 21.8766 174.605 22.2338C174.009 22.591 173.292 22.7487 172.579 22.6794C172.083 22.6911 171.59 22.6059 171.135 22.4296C170.679 22.2533 170.272 21.9902 169.941 21.6585C169.611 21.3267 169.364 20.9344 169.219 20.5087C169.075 20.0829 169.035 19.634 169.102 19.193C169.036 18.7507 169.077 18.3008 169.222 17.8738C169.366 17.4468 169.611 17.0526 169.94 16.718C170.269 16.3834 170.675 16.1161 171.129 15.9343C171.583 15.7525 172.075 15.6604 172.572 15.6642C174.666 15.6642 175.93 16.9482 175.93 19.0692V19.5343H170.615V19.609C170.592 19.8569 170.627 20.1064 170.717 20.3415C170.808 20.5767 170.952 20.7922 171.141 20.9744C171.329 21.1566 171.558 21.3014 171.813 21.3995C172.068 21.4976 172.343 21.5468 172.62 21.5441C172.975 21.5823 173.335 21.5249 173.654 21.3791C173.973 21.2333 174.236 21.0057 174.41 20.7252L175.84 20.7253ZM170.615 18.5485H174.417C174.435 18.3218 174.401 18.0941 174.316 17.88C174.231 17.6659 174.097 17.4702 173.922 17.3054C173.748 17.1406 173.537 17.0104 173.303 16.9232C173.069 16.8359 172.817 16.7935 172.564 16.7987C172.307 16.7958 172.052 16.8391 171.814 16.926C171.576 17.0129 171.36 17.1417 171.179 17.3048C170.997 17.4679 170.854 17.6619 170.757 17.8755C170.66 18.0891 170.612 18.3179 170.615 18.5485H170.615Z" fill="white"/>
</g>
</g>
</g>
</svg>
